{
	"asset":{
		"generator":"Khronos glTF Blender I/O v5.1.18",
		"version":"2.0"
	},
	"extensionsUsed":[
		"KHR_materials_specular"
	],
	"scene":0,
	"scenes":[
		{
			"name":"Scene",
			"nodes":[
				0,
				1,
				2
			]
		}
	],
	"nodes":[
		{
			"mesh":0,
			"name":"Dumpster_1",
			"translation":[
				1.9741096496582031,
				0,
				0
			]
		},
		{
			"mesh":1,
			"name":"Dumpster_1_Lid_Right",
			"translation":[
				2.4420862197875977,
				1.4240097999572754,
				-0.6218675971031189
			]
		},
		{
			"mesh":2,
			"name":"Dumpster_1_Lid_Left",
			"translation":[
				1.5131347179412842,
				1.4240177869796753,
				-0.6225271821022034
			]
		}
	],
	"materials":[
		{
			"doubleSided":true,
			"extensions":{
				"KHR_materials_specular":{
					"specularFactor":0,
					"specularColorFactor":[
						0.8999999761581421,
						0.8999999761581421,
						0.8999999761581421
					]
				}
			},
			"name":"6Y_dumpster_tex",
			"normalTexture":{
				"index":0
			},
			"pbrMetallicRoughness":{
				"baseColorTexture":{
					"index":1
				},
				"metallicRoughnessTexture":{
					"index":2
				}
			}
		}
	],
	"meshes":[
		{
			"name":"Mesh.001",
			"primitives":[
				{
					"attributes":{
						"POSITION":0,
						"NORMAL":1,
						"TEXCOORD_0":2
					},
					"indices":3,
					"material":0
				}
			]
		},
		{
			"name":"Mesh.002",
			"primitives":[
				{
					"attributes":{
						"POSITION":4,
						"NORMAL":5,
						"TEXCOORD_0":6
					},
					"indices":7,
					"material":0
				}
			]
		},
		{
			"name":"Mesh.003",
			"primitives":[
				{
					"attributes":{
						"POSITION":8,
						"NORMAL":9,
						"TEXCOORD_0":10
					},
					"indices":11,
					"material":0
				}
			]
		}
	],
	"textures":[
		{
			"sampler":0,
			"source":0
		},
		{
			"sampler":0,
			"source":1
		},
		{
			"sampler":0,
			"source":2
		}
	],
	"images":[
		{
			"mimeType":"image/png",
			"name":"6Y_dumpster_tex_Normal_OpenGL",
			"uri":"6Y_dumpster_tex_Normal_OpenGL.png"
		},
		{
			"mimeType":"image/png",
			"name":"6Y_dumpster_tex_Base_Color",
			"uri":"6Y_dumpster_tex_Base_Color.png"
		},
		{
			"mimeType":"image/png",
			"name":"6Y_dumpster_tex_Metallic-6Y_dumpster_tex_Roughness",
			"uri":"6Y_dumpster_tex_Metallic-6Y_dumpster_tex_Roughness.png"
		}
	],
	"accessors":[
		{
			"bufferView":0,
			"componentType":5126,
			"count":5622,
			"max":[
				1.004582405090332,
				1.4415881633758545,
				0.6168742179870605
			],
			"min":[
				-1.0079498291015625,
				-1.494388068058546e-16,
				-0.6387649774551392
			],
			"type":"VEC3"
		},
		{
			"bufferView":1,
			"componentType":5126,
			"count":5622,
			"type":"VEC3"
		},
		{
			"bufferView":2,
			"componentType":5126,
			"count":5622,
			"type":"VEC2"
		},
		{
			"bufferView":3,
			"componentType":5123,
			"count":14457,
			"type":"SCALAR"
		},
		{
			"bufferView":4,
			"componentType":5126,
			"count":465,
			"max":[
				0.46508079767227173,
				0.024535000324249268,
				1.2227225303649902
			],
			"min":[
				-0.46429118514060974,
				-0.2182772308588028,
				-0.013663864694535732
			],
			"type":"VEC3"
		},
		{
			"bufferView":5,
			"componentType":5126,
			"count":465,
			"type":"VEC3"
		},
		{
			"bufferView":6,
			"componentType":5126,
			"count":465,
			"type":"VEC2"
		},
		{
			"bufferView":7,
			"componentType":5123,
			"count":1116,
			"type":"SCALAR"
		},
		{
			"bufferView":8,
			"componentType":5126,
			"count":450,
			"max":[
				0.4572812020778656,
				0.024225234985351562,
				1.222257375717163
			],
			"min":[
				-0.47208765149116516,
				-0.22089004516601562,
				-0.013669490814208984
			],
			"type":"VEC3"
		},
		{
			"bufferView":9,
			"componentType":5126,
			"count":450,
			"type":"VEC3"
		},
		{
			"bufferView":10,
			"componentType":5126,
			"count":450,
			"type":"VEC2"
		},
		{
			"bufferView":11,
			"componentType":5123,
			"count":1206,
			"type":"SCALAR"
		}
	],
	"bufferViews":[
		{
			"buffer":0,
			"byteLength":67464,
			"byteOffset":0,
			"target":34962
		},
		{
			"buffer":0,
			"byteLength":67464,
			"byteOffset":67464,
			"target":34962
		},
		{
			"buffer":0,
			"byteLength":44976,
			"byteOffset":134928,
			"target":34962
		},
		{
			"buffer":0,
			"byteLength":28914,
			"byteOffset":179904,
			"target":34963
		},
		{
			"buffer":0,
			"byteLength":5580,
			"byteOffset":208820,
			"target":34962
		},
		{
			"buffer":0,
			"byteLength":5580,
			"byteOffset":214400,
			"target":34962
		},
		{
			"buffer":0,
			"byteLength":3720,
			"byteOffset":219980,
			"target":34962
		},
		{
			"buffer":0,
			"byteLength":2232,
			"byteOffset":223700,
			"target":34963
		},
		{
			"buffer":0,
			"byteLength":5400,
			"byteOffset":225932,
			"target":34962
		},
		{
			"buffer":0,
			"byteLength":5400,
			"byteOffset":231332,
			"target":34962
		},
		{
			"buffer":0,
			"byteLength":3600,
			"byteOffset":236732,
			"target":34962
		},
		{
			"buffer":0,
			"byteLength":2412,
			"byteOffset":240332,
			"target":34963
		}
	],
	"samplers":[
		{
			"magFilter":9729,
			"minFilter":9987
		}
	],
	"buffers":[
		{
			"byteLength":242744,
			"uri":"dumpster_1.bin"
		}
	]
}
