{
	"asset":{
		"generator":"Khronos glTF Blender I/O v5.0.21",
		"version":"2.0"
	},
	"scene":0,
	"scenes":[
		{
			"name":"Scene",
			"nodes":[
				0
			]
		}
	],
	"nodes":[
		{
			"mesh":0,
			"name":"Dumpster_1_Lid_Right"
		}
	],
	"meshes":[
		{
			"name":"Mesh.002",
			"primitives":[
				{
					"attributes":{
						"POSITION":0,
						"NORMAL":1,
						"TEXCOORD_0":2
					},
					"indices":3
				}
			]
		}
	],
	"accessors":[
		{
			"bufferView":0,
			"componentType":5126,
			"count":478,
			"max":[
				0.46508079767227173,
				0.024534940719604492,
				1.2227225303649902
			],
			"min":[
				-0.46429118514060974,
				-0.2182772159576416,
				-0.013663887977600098
			],
			"type":"VEC3"
		},
		{
			"bufferView":1,
			"componentType":5126,
			"count":478,
			"type":"VEC3"
		},
		{
			"bufferView":2,
			"componentType":5126,
			"count":478,
			"type":"VEC2"
		},
		{
			"bufferView":3,
			"componentType":5123,
			"count":1116,
			"type":"SCALAR"
		}
	],
	"bufferViews":[
		{
			"buffer":0,
			"byteLength":5736,
			"byteOffset":0,
			"target":34962
		},
		{
			"buffer":0,
			"byteLength":5736,
			"byteOffset":5736,
			"target":34962
		},
		{
			"buffer":0,
			"byteLength":3824,
			"byteOffset":11472,
			"target":34962
		},
		{
			"buffer":0,
			"byteLength":2232,
			"byteOffset":15296,
			"target":34963
		}
	],
	"buffers":[
		{
			"byteLength":17528,
			"uri":"Lid_Right.bin"
		}
	]
}
