{
	"asset":{
		"generator":"Khronos glTF Blender I/O v5.0.21",
		"version":"2.0"
	},
	"scene":0,
	"scenes":[
		{
			"name":"Scene",
			"nodes":[
				0
			]
		}
	],
	"nodes":[
		{
			"mesh":0,
			"name":"Dumpster_2_Lid_Left",
			"translation":[
				-0.37014567852020264,
				1.1551557779312134,
				-0.4588172733783722
			]
		}
	],
	"meshes":[
		{
			"name":"Mesh.005",
			"primitives":[
				{
					"attributes":{
						"POSITION":0,
						"NORMAL":1,
						"TEXCOORD_0":2
					},
					"indices":3
				}
			]
		}
	],
	"accessors":[
		{
			"bufferView":0,
			"componentType":5126,
			"count":451,
			"max":[
				0.3669184148311615,
				0.01980268955230713,
				0.9042200446128845
			],
			"min":[
				-0.36818715929985046,
				-0.1749858260154724,
				-0.010271012783050537
			],
			"type":"VEC3"
		},
		{
			"bufferView":1,
			"componentType":5126,
			"count":451,
			"type":"VEC3"
		},
		{
			"bufferView":2,
			"componentType":5126,
			"count":451,
			"type":"VEC2"
		},
		{
			"bufferView":3,
			"componentType":5123,
			"count":1116,
			"type":"SCALAR"
		}
	],
	"bufferViews":[
		{
			"buffer":0,
			"byteLength":5412,
			"byteOffset":0,
			"target":34962
		},
		{
			"buffer":0,
			"byteLength":5412,
			"byteOffset":5412,
			"target":34962
		},
		{
			"buffer":0,
			"byteLength":3608,
			"byteOffset":10824,
			"target":34962
		},
		{
			"buffer":0,
			"byteLength":2232,
			"byteOffset":14432,
			"target":34963
		}
	],
	"buffers":[
		{
			"byteLength":16664,
			"uri":"Dumpster_Lid_Left.bin"
		}
	]
}
