{
	"asset":{
		"generator":"Khronos glTF Blender I/O v5.1.18",
		"version":"2.0"
	},
	"scene":0,
	"scenes":[
		{
			"name":"Scene",
			"nodes":[
				0
			]
		}
	],
	"nodes":[
		{
			"mesh":0,
			"name":"Hopper",
			"translation":[
				0,
				5,
				0
			]
		}
	],
	"meshes":[
		{
			"name":"Hopper",
			"primitives":[
				{
					"attributes":{
						"POSITION":0,
						"NORMAL":1,
						"TEXCOORD_0":2
					},
					"indices":3
				}
			]
		}
	],
	"accessors":[
		{
			"bufferView":0,
			"componentType":5126,
			"count":376,
			"max":[
				2.768756866455078,
				2,
				2.6060659885406494
			],
			"min":[
				-2.768756866455078,
				-0.3000001907348633,
				-2.6060659885406494
			],
			"type":"VEC3"
		},
		{
			"bufferView":1,
			"componentType":5126,
			"count":376,
			"type":"VEC3"
		},
		{
			"bufferView":2,
			"componentType":5126,
			"count":376,
			"type":"VEC2"
		},
		{
			"bufferView":3,
			"componentType":5123,
			"count":828,
			"type":"SCALAR"
		}
	],
	"bufferViews":[
		{
			"buffer":0,
			"byteLength":4512,
			"byteOffset":0,
			"target":34962
		},
		{
			"buffer":0,
			"byteLength":4512,
			"byteOffset":4512,
			"target":34962
		},
		{
			"buffer":0,
			"byteLength":3008,
			"byteOffset":9024,
			"target":34962
		},
		{
			"buffer":0,
			"byteLength":1656,
			"byteOffset":12032,
			"target":34963
		}
	],
	"buffers":[
		{
			"byteLength":13688,
			"uri":"hopper.bin"
		}
	]
}
