{
	"asset":{
		"generator":"Khronos glTF Blender I/O v5.1.18",
		"version":"2.0"
	},
	"scene":0,
	"scenes":[
		{
			"name":"Scene",
			"nodes":[
				0
			]
		}
	],
	"nodes":[
		{
			"mesh":0,
			"name":"safety_low_08 - Default_0"
		}
	],
	"materials":[
		{
			"doubleSided":true,
			"name":"08_-_Default",
			"normalTexture":{
				"index":0
			},
			"occlusionTexture":{
				"index":1
			},
			"pbrMetallicRoughness":{
				"baseColorTexture":{
					"index":2
				},
				"metallicRoughnessTexture":{
					"index":1
				}
			}
		}
	],
	"meshes":[
		{
			"name":"safety_low_08 - Default_0",
			"primitives":[
				{
					"attributes":{
						"POSITION":0,
						"NORMAL":1,
						"TEXCOORD_0":2
					},
					"indices":3,
					"material":0
				}
			]
		}
	],
	"textures":[
		{
			"sampler":0,
			"source":0
		},
		{
			"sampler":0,
			"source":1
		},
		{
			"sampler":0,
			"source":2
		}
	],
	"images":[
		{
			"mimeType":"image/png",
			"name":"08_-_Default_normal",
			"uri":"08_-_Default_normal.png"
		},
		{
			"mimeType":"image/png",
			"name":"08_-_Default_metallicRoughness",
			"uri":"08_-_Default_metallicRoughness.png"
		},
		{
			"mimeType":"image/png",
			"name":"08_-_Default_baseColor",
			"uri":"08_-_Default_baseColor.png"
		}
	],
	"accessors":[
		{
			"bufferView":0,
			"componentType":5126,
			"count":1362,
			"max":[
				0.044865477830171585,
				0.20234525203704834,
				0.07012057304382324
			],
			"min":[
				-0.07121938467025757,
				-0.004991685040295124,
				-0.08699580281972885
			],
			"type":"VEC3"
		},
		{
			"bufferView":1,
			"componentType":5126,
			"count":1362,
			"type":"VEC3"
		},
		{
			"bufferView":2,
			"componentType":5126,
			"count":1362,
			"type":"VEC2"
		},
		{
			"bufferView":3,
			"componentType":5123,
			"count":5982,
			"type":"SCALAR"
		}
	],
	"bufferViews":[
		{
			"buffer":0,
			"byteLength":16344,
			"byteOffset":0,
			"target":34962
		},
		{
			"buffer":0,
			"byteLength":16344,
			"byteOffset":16344,
			"target":34962
		},
		{
			"buffer":0,
			"byteLength":10896,
			"byteOffset":32688,
			"target":34962
		},
		{
			"buffer":0,
			"byteLength":11964,
			"byteOffset":43584,
			"target":34963
		}
	],
	"samplers":[
		{
			"magFilter":9729,
			"minFilter":9987
		}
	],
	"buffers":[
		{
			"byteLength":55548,
			"uri":"grenade.bin"
		}
	]
}
