{
	"asset":{
		"generator":"Khronos glTF Blender I/O v5.1.18",
		"version":"2.0"
	},
	"scene":0,
	"scenes":[
		{
			"name":"Scene",
			"nodes":[
				0
			]
		}
	],
	"nodes":[
		{
			"mesh":0,
			"name":"Barricade_2"
		}
	],
	"materials":[
		{
			"doubleSided":true,
			"name":"short_barrier_painted",
			"normalTexture":{
				"index":0
			},
			"pbrMetallicRoughness":{
				"baseColorTexture":{
					"index":1
				},
				"metallicRoughnessTexture":{
					"index":2
				},
				"roughnessFactor":0.6785442233085632
			}
		}
	],
	"meshes":[
		{
			"name":"Object_13",
			"primitives":[
				{
					"attributes":{
						"POSITION":0,
						"NORMAL":1,
						"TEXCOORD_0":2
					},
					"indices":3,
					"material":0
				}
			]
		}
	],
	"textures":[
		{
			"sampler":0,
			"source":0
		},
		{
			"sampler":0,
			"source":1
		},
		{
			"sampler":0,
			"source":2
		}
	],
	"images":[
		{
			"mimeType":"image/jpeg",
			"name":"Image",
			"uri":"Image.jpg"
		},
		{
			"mimeType":"image/jpeg",
			"name":"Image",
			"uri":"Image-1.jpg"
		},
		{
			"mimeType":"image/png",
			"name":"Image",
			"uri":"Image.png"
		}
	],
	"accessors":[
		{
			"bufferView":0,
			"componentType":5126,
			"count":838,
			"max":[
				1.3133995532989502,
				0.6697014570236206,
				0.21752294898033142
			],
			"min":[
				-1.3133995532989502,
				-1.2277146765882208e-07,
				-0.21752303838729858
			],
			"type":"VEC3"
		},
		{
			"bufferView":1,
			"componentType":5126,
			"count":838,
			"type":"VEC3"
		},
		{
			"bufferView":2,
			"componentType":5126,
			"count":838,
			"type":"VEC2"
		},
		{
			"bufferView":3,
			"componentType":5123,
			"count":1554,
			"type":"SCALAR"
		}
	],
	"bufferViews":[
		{
			"buffer":0,
			"byteLength":10056,
			"byteOffset":0,
			"target":34962
		},
		{
			"buffer":0,
			"byteLength":10056,
			"byteOffset":10056,
			"target":34962
		},
		{
			"buffer":0,
			"byteLength":6704,
			"byteOffset":20112,
			"target":34962
		},
		{
			"buffer":0,
			"byteLength":3108,
			"byteOffset":26816,
			"target":34963
		}
	],
	"samplers":[
		{
			"magFilter":9729,
			"minFilter":9987
		}
	],
	"buffers":[
		{
			"byteLength":29924,
			"uri":"Barricade_2.bin"
		}
	]
}
