{
	"asset":{
		"generator":"Khronos glTF Blender I/O v5.1.18",
		"version":"2.0"
	},
	"scene":0,
	"scenes":[
		{
			"name":"Scene",
			"nodes":[
				0
			]
		}
	],
	"nodes":[
		{
			"mesh":0,
			"name":"Traffic_Drum_2",
			"rotation":[
				-0.70710688829422,
				0,
				0,
				0.7071066498756409
			]
		}
	],
	"materials":[
		{
			"doubleSided":true,
			"name":"None",
			"normalTexture":{
				"index":0
			},
			"pbrMetallicRoughness":{
				"baseColorTexture":{
					"index":1
				},
				"metallicFactor":0,
				"metallicRoughnessTexture":{
					"index":2
				}
			}
		}
	],
	"meshes":[
		{
			"name":"Object_10",
			"primitives":[
				{
					"attributes":{
						"POSITION":0,
						"NORMAL":1,
						"TEXCOORD_0":2
					},
					"indices":3,
					"material":0
				}
			]
		}
	],
	"textures":[
		{
			"sampler":0,
			"source":0
		},
		{
			"sampler":0,
			"source":1
		},
		{
			"sampler":0,
			"source":2
		}
	],
	"images":[
		{
			"mimeType":"image/jpeg",
			"name":"Image",
			"uri":"Image.jpg"
		},
		{
			"mimeType":"image/jpeg",
			"name":"Image",
			"uri":"Image-1.jpg"
		},
		{
			"mimeType":"image/png",
			"name":"Image",
			"uri":"Image.png"
		}
	],
	"accessors":[
		{
			"bufferView":0,
			"componentType":5126,
			"count":664,
			"max":[
				0.327972412109375,
				0.32299041748046875,
				0.6772677302360535
			],
			"min":[
				-0.3279721736907959,
				-0.32298994064331055,
				1.4901161193847656e-08
			],
			"type":"VEC3"
		},
		{
			"bufferView":1,
			"componentType":5126,
			"count":664,
			"type":"VEC3"
		},
		{
			"bufferView":2,
			"componentType":5126,
			"count":664,
			"type":"VEC2"
		},
		{
			"bufferView":3,
			"componentType":5123,
			"count":2202,
			"type":"SCALAR"
		}
	],
	"bufferViews":[
		{
			"buffer":0,
			"byteLength":7968,
			"byteOffset":0,
			"target":34962
		},
		{
			"buffer":0,
			"byteLength":7968,
			"byteOffset":7968,
			"target":34962
		},
		{
			"buffer":0,
			"byteLength":5312,
			"byteOffset":15936,
			"target":34962
		},
		{
			"buffer":0,
			"byteLength":4404,
			"byteOffset":21248,
			"target":34963
		}
	],
	"samplers":[
		{
			"magFilter":9729,
			"minFilter":9987
		}
	],
	"buffers":[
		{
			"byteLength":25652,
			"uri":"Traffic_Drum_2.bin"
		}
	]
}
