{
	"asset":{
		"generator":"Khronos glTF Blender I/O v5.1.18",
		"version":"2.0"
	},
	"scene":0,
	"scenes":[
		{
			"name":"Scene",
			"nodes":[
				0
			]
		}
	],
	"nodes":[
		{
			"mesh":0,
			"name":"Barricade_4",
			"rotation":[
				-0.70710688829422,
				0,
				0,
				0.7071066498756409
			]
		}
	],
	"materials":[
		{
			"doubleSided":true,
			"name":"barrier",
			"normalTexture":{
				"index":0
			},
			"occlusionTexture":{
				"index":1
			},
			"pbrMetallicRoughness":{
				"baseColorTexture":{
					"index":2
				},
				"metallicFactor":0.4468368887901306,
				"metallicRoughnessTexture":{
					"index":1
				},
				"roughnessFactor":0.7456173896789551
			}
		}
	],
	"meshes":[
		{
			"name":"Object_3",
			"primitives":[
				{
					"attributes":{
						"POSITION":0,
						"NORMAL":1,
						"TEXCOORD_0":2
					},
					"indices":3,
					"material":0
				}
			]
		}
	],
	"textures":[
		{
			"sampler":0,
			"source":0
		},
		{
			"sampler":0,
			"source":1
		},
		{
			"sampler":0,
			"source":2
		}
	],
	"images":[
		{
			"mimeType":"image/jpeg",
			"name":"Image",
			"uri":"Image.jpg"
		},
		{
			"mimeType":"image/png",
			"name":"Image",
			"uri":"Image.png"
		},
		{
			"mimeType":"image/jpeg",
			"name":"Image",
			"uri":"Image-1.jpg"
		}
	],
	"accessors":[
		{
			"bufferView":0,
			"componentType":5126,
			"count":590,
			"max":[
				0.8825507164001465,
				0.24001026153564453,
				0.9245354533195496
			],
			"min":[
				-0.8824493885040283,
				-0.24248695373535156,
				-0.004708915948867798
			],
			"type":"VEC3"
		},
		{
			"bufferView":1,
			"componentType":5126,
			"count":590,
			"type":"VEC3"
		},
		{
			"bufferView":2,
			"componentType":5126,
			"count":590,
			"type":"VEC2"
		},
		{
			"bufferView":3,
			"componentType":5123,
			"count":2052,
			"type":"SCALAR"
		}
	],
	"bufferViews":[
		{
			"buffer":0,
			"byteLength":7080,
			"byteOffset":0,
			"target":34962
		},
		{
			"buffer":0,
			"byteLength":7080,
			"byteOffset":7080,
			"target":34962
		},
		{
			"buffer":0,
			"byteLength":4720,
			"byteOffset":14160,
			"target":34962
		},
		{
			"buffer":0,
			"byteLength":4104,
			"byteOffset":18880,
			"target":34963
		}
	],
	"samplers":[
		{
			"magFilter":9729,
			"minFilter":9987
		}
	],
	"buffers":[
		{
			"byteLength":22984,
			"uri":"Barricade_4.bin"
		}
	]
}
