{
	"asset":{
		"generator":"Khronos glTF Blender I/O v5.1.18",
		"version":"2.0"
	},
	"scene":0,
	"scenes":[
		{
			"name":"Scene",
			"nodes":[
				0
			]
		}
	],
	"nodes":[
		{
			"mesh":0,
			"name":"Barricade_3"
		}
	],
	"materials":[
		{
			"doubleSided":true,
			"name":"short_barrier_signed",
			"normalTexture":{
				"index":0
			},
			"pbrMetallicRoughness":{
				"baseColorTexture":{
					"index":1
				},
				"metallicRoughnessTexture":{
					"index":2
				}
			}
		}
	],
	"meshes":[
		{
			"name":"Object_14",
			"primitives":[
				{
					"attributes":{
						"POSITION":0,
						"NORMAL":1,
						"TEXCOORD_0":2
					},
					"indices":3,
					"material":0
				}
			]
		}
	],
	"textures":[
		{
			"sampler":0,
			"source":0
		},
		{
			"sampler":0,
			"source":1
		},
		{
			"sampler":0,
			"source":2
		}
	],
	"images":[
		{
			"mimeType":"image/jpeg",
			"name":"Image",
			"uri":"Image.jpg"
		},
		{
			"mimeType":"image/jpeg",
			"name":"Image",
			"uri":"Image-1.jpg"
		},
		{
			"mimeType":"image/png",
			"name":"Image",
			"uri":"Image.png"
		}
	],
	"accessors":[
		{
			"bufferView":0,
			"componentType":5126,
			"count":842,
			"max":[
				1.3134230375289917,
				0.6697015166282654,
				0.2178734540939331
			],
			"min":[
				-1.3134230375289917,
				-1.3741896509600338e-07,
				-0.21787413954734802
			],
			"type":"VEC3"
		},
		{
			"bufferView":1,
			"componentType":5126,
			"count":842,
			"type":"VEC3"
		},
		{
			"bufferView":2,
			"componentType":5126,
			"count":842,
			"type":"VEC2"
		},
		{
			"bufferView":3,
			"componentType":5123,
			"count":1554,
			"type":"SCALAR"
		}
	],
	"bufferViews":[
		{
			"buffer":0,
			"byteLength":10104,
			"byteOffset":0,
			"target":34962
		},
		{
			"buffer":0,
			"byteLength":10104,
			"byteOffset":10104,
			"target":34962
		},
		{
			"buffer":0,
			"byteLength":6736,
			"byteOffset":20208,
			"target":34962
		},
		{
			"buffer":0,
			"byteLength":3108,
			"byteOffset":26944,
			"target":34963
		}
	],
	"samplers":[
		{
			"magFilter":9729,
			"minFilter":9987
		}
	],
	"buffers":[
		{
			"byteLength":30052,
			"uri":"Barricade_3.bin"
		}
	]
}
