{
	"asset":{
		"generator":"Khronos glTF Blender I/O v5.1.18",
		"version":"2.0"
	},
	"scene":0,
	"scenes":[
		{
			"name":"Scene",
			"nodes":[
				0
			]
		}
	],
	"nodes":[
		{
			"mesh":0,
			"name":"beach_ball_beach_ball_0"
		}
	],
	"materials":[
		{
			"doubleSided":true,
			"name":"beach_ball",
			"normalTexture":{
				"index":0
			},
			"occlusionTexture":{
				"index":1
			},
			"pbrMetallicRoughness":{
				"baseColorTexture":{
					"index":2
				},
				"metallicRoughnessTexture":{
					"index":1
				}
			}
		}
	],
	"meshes":[
		{
			"name":"beach_ball_beach_ball_0",
			"primitives":[
				{
					"attributes":{
						"POSITION":0,
						"NORMAL":1,
						"TEXCOORD_0":2,
						"TEXCOORD_1":3,
						"TEXCOORD_2":4,
						"TEXCOORD_3":5
					},
					"indices":6,
					"material":0
				}
			]
		}
	],
	"textures":[
		{
			"sampler":0,
			"source":0
		},
		{
			"sampler":0,
			"source":1
		},
		{
			"sampler":0,
			"source":2
		}
	],
	"images":[
		{
			"mimeType":"image/png",
			"name":"beach_ball_normal",
			"uri":"beach_ball_normal.png"
		},
		{
			"mimeType":"image/png",
			"name":"beach_ball_metallicRoughness",
			"uri":"beach_ball_metallicRoughness.png"
		},
		{
			"mimeType":"image/png",
			"name":"beach_ball_baseColor",
			"uri":"beach_ball_baseColor.png"
		}
	],
	"accessors":[
		{
			"bufferView":0,
			"componentType":5126,
			"count":636,
			"max":[
				0.30000001192092896,
				0.30000001192092896,
				0.30000001192092896
			],
			"min":[
				-0.30000001192092896,
				-0.30000001192092896,
				-0.30000001192092896
			],
			"type":"VEC3"
		},
		{
			"bufferView":1,
			"componentType":5126,
			"count":636,
			"type":"VEC3"
		},
		{
			"bufferView":2,
			"componentType":5126,
			"count":636,
			"type":"VEC2"
		},
		{
			"bufferView":3,
			"componentType":5126,
			"count":636,
			"type":"VEC2"
		},
		{
			"bufferView":4,
			"componentType":5126,
			"count":636,
			"type":"VEC2"
		},
		{
			"bufferView":5,
			"componentType":5126,
			"count":636,
			"type":"VEC2"
		},
		{
			"bufferView":6,
			"componentType":5123,
			"count":2880,
			"type":"SCALAR"
		}
	],
	"bufferViews":[
		{
			"buffer":0,
			"byteLength":7632,
			"byteOffset":0,
			"target":34962
		},
		{
			"buffer":0,
			"byteLength":7632,
			"byteOffset":7632,
			"target":34962
		},
		{
			"buffer":0,
			"byteLength":5088,
			"byteOffset":15264,
			"target":34962
		},
		{
			"buffer":0,
			"byteLength":5088,
			"byteOffset":20352,
			"target":34962
		},
		{
			"buffer":0,
			"byteLength":5088,
			"byteOffset":25440,
			"target":34962
		},
		{
			"buffer":0,
			"byteLength":5088,
			"byteOffset":30528,
			"target":34962
		},
		{
			"buffer":0,
			"byteLength":5760,
			"byteOffset":35616,
			"target":34963
		}
	],
	"samplers":[
		{
			"magFilter":9729,
			"minFilter":9987
		}
	],
	"buffers":[
		{
			"byteLength":41376,
			"uri":"beach_ball.bin"
		}
	]
}
