{
	"asset":{
		"generator":"Khronos glTF Blender I/O v5.1.18",
		"version":"2.0"
	},
	"scene":0,
	"scenes":[
		{
			"name":"Scene",
			"nodes":[
				0
			]
		}
	],
	"nodes":[
		{
			"mesh":0,
			"name":"PlayerSpawn"
		}
	],
	"materials":[
		{
			"doubleSided":true,
			"name":"Material.001",
			"pbrMetallicRoughness":{
				"baseColorFactor":[
					0.7078269124031067,
					0.7078269124031067,
					0.7078269124031067,
					1
				],
				"metallicFactor":0.1869913637638092,
				"roughnessFactor":0.6000000238418579
			}
		}
	],
	"meshes":[
		{
			"name":"PlayerSpawn",
			"primitives":[
				{
					"attributes":{
						"POSITION":0,
						"NORMAL":1,
						"TEXCOORD_0":2
					},
					"indices":3,
					"material":0
				}
			]
		}
	],
	"accessors":[
		{
			"bufferView":0,
			"componentType":5126,
			"count":534,
			"max":[
				0.5530967116355896,
				1.995004653930664,
				0.5530961751937866
			],
			"min":[
				-0.5530961751937866,
				-1.6755844001181686e-07,
				-0.5530962944030762
			],
			"type":"VEC3"
		},
		{
			"bufferView":1,
			"componentType":5126,
			"count":534,
			"type":"VEC3"
		},
		{
			"bufferView":2,
			"componentType":5126,
			"count":534,
			"type":"VEC2"
		},
		{
			"bufferView":3,
			"componentType":5123,
			"count":1764,
			"type":"SCALAR"
		}
	],
	"bufferViews":[
		{
			"buffer":0,
			"byteLength":6408,
			"byteOffset":0,
			"target":34962
		},
		{
			"buffer":0,
			"byteLength":6408,
			"byteOffset":6408,
			"target":34962
		},
		{
			"buffer":0,
			"byteLength":4272,
			"byteOffset":12816,
			"target":34962
		},
		{
			"buffer":0,
			"byteLength":3528,
			"byteOffset":17088,
			"target":34963
		}
	],
	"buffers":[
		{
			"byteLength":20616,
			"uri":"player_spawn.bin"
		}
	]
}
