{
	"asset":{
		"generator":"Khronos glTF Blender I/O v5.1.18",
		"version":"2.0"
	},
	"scene":0,
	"scenes":[
		{
			"name":"Scene",
			"nodes":[
				0
			]
		}
	],
	"nodes":[
		{
			"mesh":0,
			"name":"BopperBumperRound"
		}
	],
	"meshes":[
		{
			"name":"BopperBumperRound",
			"primitives":[
				{
					"attributes":{
						"POSITION":0,
						"NORMAL":1,
						"TEXCOORD_0":2
					},
					"indices":3
				}
			]
		}
	],
	"accessors":[
		{
			"bufferView":0,
			"componentType":5126,
			"count":418,
			"max":[
				1,
				1.1000003814697266,
				1
			],
			"min":[
				-1,
				0,
				-1
			],
			"type":"VEC3"
		},
		{
			"bufferView":1,
			"componentType":5126,
			"count":418,
			"type":"VEC3"
		},
		{
			"bufferView":2,
			"componentType":5126,
			"count":418,
			"type":"VEC2"
		},
		{
			"bufferView":3,
			"componentType":5123,
			"count":1728,
			"type":"SCALAR"
		}
	],
	"bufferViews":[
		{
			"buffer":0,
			"byteLength":5016,
			"byteOffset":0,
			"target":34962
		},
		{
			"buffer":0,
			"byteLength":5016,
			"byteOffset":5016,
			"target":34962
		},
		{
			"buffer":0,
			"byteLength":3344,
			"byteOffset":10032,
			"target":34962
		},
		{
			"buffer":0,
			"byteLength":3456,
			"byteOffset":13376,
			"target":34963
		}
	],
	"buffers":[
		{
			"byteLength":16832,
			"uri":"bop_bumper_round.bin"
		}
	]
}
