{
	"asset":{
		"generator":"Khronos glTF Blender I/O v5.1.18",
		"version":"2.0"
	},
	"scene":0,
	"scenes":[
		{
			"name":"Scene",
			"nodes":[
				0
			]
		}
	],
	"nodes":[
		{
			"mesh":0,
			"name":"Landmine"
		}
	],
	"meshes":[
		{
			"name":"Landmine",
			"primitives":[
				{
					"attributes":{
						"POSITION":0,
						"NORMAL":1,
						"TEXCOORD_0":2
					},
					"indices":3
				}
			]
		}
	],
	"accessors":[
		{
			"bufferView":0,
			"componentType":5126,
			"count":347,
			"max":[
				0.19456738233566284,
				0.10007507354021072,
				0.19456738233566284
			],
			"min":[
				-0.19456738233566284,
				0,
				-0.19456738233566284
			],
			"type":"VEC3"
		},
		{
			"bufferView":1,
			"componentType":5126,
			"count":347,
			"type":"VEC3"
		},
		{
			"bufferView":2,
			"componentType":5126,
			"count":347,
			"type":"VEC2"
		},
		{
			"bufferView":3,
			"componentType":5123,
			"count":1188,
			"type":"SCALAR"
		}
	],
	"bufferViews":[
		{
			"buffer":0,
			"byteLength":4164,
			"byteOffset":0,
			"target":34962
		},
		{
			"buffer":0,
			"byteLength":4164,
			"byteOffset":4164,
			"target":34962
		},
		{
			"buffer":0,
			"byteLength":2776,
			"byteOffset":8328,
			"target":34962
		},
		{
			"buffer":0,
			"byteLength":2376,
			"byteOffset":11104,
			"target":34963
		}
	],
	"buffers":[
		{
			"byteLength":13480,
			"uri":"landmine.bin"
		}
	]
}
