{
	"asset":{
		"generator":"Khronos glTF Blender I/O v5.0.21",
		"version":"2.0"
	},
	"scene":0,
	"scenes":[
		{
			"name":"Scene",
			"nodes":[
				0
			]
		}
	],
	"nodes":[
		{
			"mesh":0,
			"name":"Dumpster_1"
		}
	],
	"meshes":[
		{
			"name":"Mesh.001",
			"primitives":[
				{
					"attributes":{
						"POSITION":0,
						"NORMAL":1,
						"TEXCOORD_0":2
					},
					"indices":3
				}
			]
		}
	],
	"accessors":[
		{
			"bufferView":0,
			"componentType":5126,
			"count":5808,
			"max":[
				1.004582405090332,
				1.4415881633758545,
				0.6168742179870605
			],
			"min":[
				-1.0079498291015625,
				-1.494388068058546e-16,
				-0.6387649774551392
			],
			"type":"VEC3"
		},
		{
			"bufferView":1,
			"componentType":5126,
			"count":5808,
			"type":"VEC3"
		},
		{
			"bufferView":2,
			"componentType":5126,
			"count":5808,
			"type":"VEC2"
		},
		{
			"bufferView":3,
			"componentType":5123,
			"count":14457,
			"type":"SCALAR"
		}
	],
	"bufferViews":[
		{
			"buffer":0,
			"byteLength":69696,
			"byteOffset":0,
			"target":34962
		},
		{
			"buffer":0,
			"byteLength":69696,
			"byteOffset":69696,
			"target":34962
		},
		{
			"buffer":0,
			"byteLength":46464,
			"byteOffset":139392,
			"target":34962
		},
		{
			"buffer":0,
			"byteLength":28914,
			"byteOffset":185856,
			"target":34963
		}
	],
	"buffers":[
		{
			"byteLength":214772,
			"uri":"Dumpstser.bin"
		}
	]
}
