{
	"asset":{
		"generator":"Khronos glTF Blender I/O v5.1.18",
		"version":"2.0"
	},
	"scene":0,
	"scenes":[
		{
			"name":"Scene",
			"nodes":[
				0
			]
		}
	],
	"nodes":[
		{
			"mesh":0,
			"name":"Generator"
		}
	],
	"materials":[
		{
			"doubleSided":true,
			"name":"Material_0",
			"normalTexture":{
				"index":0
			},
			"occlusionTexture":{
				"index":1
			},
			"pbrMetallicRoughness":{
				"baseColorTexture":{
					"index":2
				},
				"metallicRoughnessTexture":{
					"index":1
				}
			}
		},
		{
			"doubleSided":true,
			"name":"Material_1",
			"normalTexture":{
				"index":3
			},
			"occlusionTexture":{
				"index":4
			},
			"pbrMetallicRoughness":{
				"baseColorTexture":{
					"index":5
				},
				"metallicRoughnessTexture":{
					"index":4
				}
			}
		}
	],
	"meshes":[
		{
			"name":"Generator",
			"primitives":[
				{
					"attributes":{
						"POSITION":0,
						"NORMAL":1,
						"TEXCOORD_0":2
					},
					"indices":3,
					"material":0
				},
				{
					"attributes":{
						"POSITION":4,
						"NORMAL":5,
						"TEXCOORD_0":6
					},
					"indices":7,
					"material":1
				}
			]
		}
	],
	"textures":[
		{
			"sampler":0,
			"source":0
		},
		{
			"sampler":0,
			"source":1
		},
		{
			"sampler":0,
			"source":2
		},
		{
			"sampler":0,
			"source":3
		},
		{
			"sampler":0,
			"source":4
		},
		{
			"sampler":0,
			"source":5
		}
	],
	"images":[
		{
			"mimeType":"image/png",
			"name":"Material_0_normal",
			"uri":"Material_0_normal.png"
		},
		{
			"mimeType":"image/png",
			"name":"Material_0_metallicRoughness",
			"uri":"Material_0_metallicRoughness.png"
		},
		{
			"mimeType":"image/jpeg",
			"name":"Material_0_baseColor",
			"uri":"Material_0_baseColor.jpg"
		},
		{
			"mimeType":"image/png",
			"name":"Material_1_normal",
			"uri":"Material_1_normal.png"
		},
		{
			"mimeType":"image/png",
			"name":"Material_1_metallicRoughness",
			"uri":"Material_1_metallicRoughness.png"
		},
		{
			"mimeType":"image/jpeg",
			"name":"Material_1_baseColor",
			"uri":"Material_1_baseColor.jpg"
		}
	],
	"accessors":[
		{
			"bufferView":0,
			"componentType":5126,
			"count":1762,
			"max":[
				0.6537203788757324,
				1.027596116065979,
				0.44906461238861084
			],
			"min":[
				-0.6607229709625244,
				0.0005859574303030968,
				-0.4499396085739136
			],
			"type":"VEC3"
		},
		{
			"bufferView":1,
			"componentType":5126,
			"count":1762,
			"type":"VEC3"
		},
		{
			"bufferView":2,
			"componentType":5126,
			"count":1762,
			"type":"VEC2"
		},
		{
			"bufferView":3,
			"componentType":5123,
			"count":5979,
			"type":"SCALAR"
		},
		{
			"bufferView":4,
			"componentType":5126,
			"count":1194,
			"max":[
				0.47584328055381775,
				0.7956697940826416,
				0.3783857524394989
			],
			"min":[
				-0.00015995629655662924,
				0.5526200532913208,
				0.3355024456977844
			],
			"type":"VEC3"
		},
		{
			"bufferView":5,
			"componentType":5126,
			"count":1194,
			"type":"VEC3"
		},
		{
			"bufferView":6,
			"componentType":5126,
			"count":1194,
			"type":"VEC2"
		},
		{
			"bufferView":7,
			"componentType":5123,
			"count":3492,
			"type":"SCALAR"
		}
	],
	"bufferViews":[
		{
			"buffer":0,
			"byteLength":21144,
			"byteOffset":0,
			"target":34962
		},
		{
			"buffer":0,
			"byteLength":21144,
			"byteOffset":21144,
			"target":34962
		},
		{
			"buffer":0,
			"byteLength":14096,
			"byteOffset":42288,
			"target":34962
		},
		{
			"buffer":0,
			"byteLength":11958,
			"byteOffset":56384,
			"target":34963
		},
		{
			"buffer":0,
			"byteLength":14328,
			"byteOffset":68344,
			"target":34962
		},
		{
			"buffer":0,
			"byteLength":14328,
			"byteOffset":82672,
			"target":34962
		},
		{
			"buffer":0,
			"byteLength":9552,
			"byteOffset":97000,
			"target":34962
		},
		{
			"buffer":0,
			"byteLength":6984,
			"byteOffset":106552,
			"target":34963
		}
	],
	"samplers":[
		{
			"magFilter":9729,
			"minFilter":9987
		}
	],
	"buffers":[
		{
			"byteLength":113536,
			"uri":"generator.bin"
		}
	]
}
