{
	"asset":{
		"generator":"Khronos glTF Blender I/O v5.1.18",
		"version":"2.0"
	},
	"scene":0,
	"scenes":[
		{
			"name":"Scene",
			"nodes":[
				0
			]
		}
	],
	"nodes":[
		{
			"mesh":0,
			"name":"MetalBall"
		}
	],
	"meshes":[
		{
			"name":"MetalBall",
			"primitives":[
				{
					"attributes":{
						"POSITION":0,
						"NORMAL":1,
						"TEXCOORD_0":2
					},
					"indices":3
				}
			]
		}
	],
	"accessors":[
		{
			"bufferView":0,
			"componentType":5126,
			"count":115,
			"max":[
				0.5,
				0.5,
				0.5
			],
			"min":[
				-0.5,
				-0.5,
				-0.5
			],
			"type":"VEC3"
		},
		{
			"bufferView":1,
			"componentType":5126,
			"count":115,
			"type":"VEC3"
		},
		{
			"bufferView":2,
			"componentType":5126,
			"count":115,
			"type":"VEC2"
		},
		{
			"bufferView":3,
			"componentType":5123,
			"count":504,
			"type":"SCALAR"
		}
	],
	"bufferViews":[
		{
			"buffer":0,
			"byteLength":1380,
			"byteOffset":0,
			"target":34962
		},
		{
			"buffer":0,
			"byteLength":1380,
			"byteOffset":1380,
			"target":34962
		},
		{
			"buffer":0,
			"byteLength":920,
			"byteOffset":2760,
			"target":34962
		},
		{
			"buffer":0,
			"byteLength":1008,
			"byteOffset":3680,
			"target":34963
		}
	],
	"buffers":[
		{
			"byteLength":4688,
			"uri":"metal_ball.bin"
		}
	]
}
