{
	"asset":{
		"generator":"Khronos glTF Blender I/O v5.1.18",
		"version":"2.0"
	},
	"scene":0,
	"scenes":[
		{
			"name":"Scene",
			"nodes":[
				0
			]
		}
	],
	"nodes":[
		{
			"mesh":0,
			"name":"Barricade_6"
		}
	],
	"materials":[
		{
			"doubleSided":true,
			"name":"wall_barrier",
			"normalTexture":{
				"index":0
			},
			"pbrMetallicRoughness":{
				"baseColorTexture":{
					"index":1
				},
				"metallicFactor":0.37976372241973877,
				"metallicRoughnessTexture":{
					"index":2
				}
			}
		}
	],
	"meshes":[
		{
			"name":"Object_8",
			"primitives":[
				{
					"attributes":{
						"POSITION":0,
						"NORMAL":1,
						"TEXCOORD_0":2
					},
					"indices":3,
					"material":0
				}
			]
		}
	],
	"textures":[
		{
			"sampler":0,
			"source":0
		},
		{
			"sampler":0,
			"source":1
		},
		{
			"sampler":0,
			"source":2
		}
	],
	"images":[
		{
			"mimeType":"image/jpeg",
			"name":"Image",
			"uri":"Image.jpg"
		},
		{
			"mimeType":"image/jpeg",
			"name":"Image",
			"uri":"Image-1.jpg"
		},
		{
			"mimeType":"image/png",
			"name":"Image",
			"uri":"Image.png"
		}
	],
	"accessors":[
		{
			"bufferView":0,
			"componentType":5126,
			"count":491,
			"max":[
				0.49592921137809753,
				2.0381743907928467,
				0.1965448409318924
			],
			"min":[
				-0.4477045238018036,
				-2.0508235820670961e-07,
				-0.19650901854038239
			],
			"type":"VEC3"
		},
		{
			"bufferView":1,
			"componentType":5126,
			"count":491,
			"type":"VEC3"
		},
		{
			"bufferView":2,
			"componentType":5126,
			"count":491,
			"type":"VEC2"
		},
		{
			"bufferView":3,
			"componentType":5123,
			"count":1908,
			"type":"SCALAR"
		}
	],
	"bufferViews":[
		{
			"buffer":0,
			"byteLength":5892,
			"byteOffset":0,
			"target":34962
		},
		{
			"buffer":0,
			"byteLength":5892,
			"byteOffset":5892,
			"target":34962
		},
		{
			"buffer":0,
			"byteLength":3928,
			"byteOffset":11784,
			"target":34962
		},
		{
			"buffer":0,
			"byteLength":3816,
			"byteOffset":15712,
			"target":34963
		}
	],
	"samplers":[
		{
			"magFilter":9729,
			"minFilter":9987
		}
	],
	"buffers":[
		{
			"byteLength":19528,
			"uri":"Barricade_6.bin"
		}
	]
}
