{
	"asset":{
		"generator":"Khronos glTF Blender I/O v5.1.18",
		"version":"2.0"
	},
	"extensionsUsed":[
		"KHR_materials_specular"
	],
	"scene":0,
	"scenes":[
		{
			"name":"Scene",
			"nodes":[
				0,
				1,
				2,
				3,
				4
			]
		}
	],
	"nodes":[
		{
			"mesh":0,
			"name":"Pool_Ball",
			"rotation":[
				0.7071068286895752,
				0,
				0,
				0.7071068286895752
			]
		},
		{
			"mesh":1,
			"name":"Pool_Table",
			"rotation":[
				0.7071068286895752,
				0,
				0,
				0.7071068286895752
			]
		},
		{
			"mesh":2,
			"name":"Pool_Stick",
			"rotation":[
				0.7071068286895752,
				0,
				0,
				0.7071068286895752
			]
		},
		{
			"mesh":3,
			"name":"Triangle",
			"rotation":[
				0.7071068286895752,
				0,
				0,
				0.7071068286895752
			]
		},
		{
			"mesh":4,
			"name":"Chalk",
			"rotation":[
				0.7071068286895752,
				0,
				0,
				0.7071068286895752
			]
		}
	],
	"materials":[
		{
			"doubleSided":true,
			"extensions":{
				"KHR_materials_specular":{
					"specularColorFactor":[
						2.0,
						2.0,
						2.0
					]
				}
			},
			"name":"Material",
			"normalTexture":{
				"index":0
			},
			"pbrMetallicRoughness":{
				"baseColorTexture":{
					"index":1
				},
				"metallicRoughnessTexture":{
					"index":2
				}
			}
		}
	],
	"meshes":[
		{
			"name":"POOL TABLE",
			"primitives":[
				{
					"attributes":{
						"POSITION":0,
						"NORMAL":1,
						"TEXCOORD_0":2
					},
					"indices":3,
					"material":0
				}
			]
		},
		{
			"name":"POOL TABLE.001",
			"primitives":[
				{
					"attributes":{
						"POSITION":4,
						"NORMAL":5,
						"TEXCOORD_0":6
					},
					"indices":7,
					"material":0
				}
			]
		},
		{
			"name":"POOL TABLE.002",
			"primitives":[
				{
					"attributes":{
						"POSITION":8,
						"NORMAL":9,
						"TEXCOORD_0":10
					},
					"indices":11,
					"material":0
				}
			]
		},
		{
			"name":"POOL TABLE.003",
			"primitives":[
				{
					"attributes":{
						"POSITION":12,
						"NORMAL":13,
						"TEXCOORD_0":14
					},
					"indices":15,
					"material":0
				}
			]
		},
		{
			"name":"POOL TABLE.004",
			"primitives":[
				{
					"attributes":{
						"POSITION":16,
						"NORMAL":17,
						"TEXCOORD_0":18
					},
					"indices":19,
					"material":0
				}
			]
		}
	],
	"textures":[
		{
			"sampler":0,
			"source":0
		},
		{
			"sampler":0,
			"source":1
		},
		{
			"sampler":0,
			"source":2
		}
	],
	"images":[
		{
			"mimeType":"image/png",
			"name":"pool table low_POOL TABLE_Normal",
			"uri":"pool%20table%20low_POOL%20TABLE_Normal.png"
		},
		{
			"mimeType":"image/png",
			"name":"pool table low_POOL TABLE_BaseColor",
			"uri":"pool%20table%20low_POOL%20TABLE_BaseColor.png"
		},
		{
			"mimeType":"image/png",
			"name":"pool table low_POOL TABLE_Metallic-pool table low_POOL TABLE_Roughness",
			"uri":"pool%20table%20low_POOL%20TABLE_Metallic-pool%20table%20low_POOL%20TABLE_Roughness.png"
		}
	],
	"accessors":[
		{
			"bufferView":0,
			"componentType":5126,
			"count":2448,
			"max":[
				0.7219719886779785,
				0.13381800055503845,
				-0.9801740050315857
			],
			"min":[
				-0.5919650197029114,
				-0.15791000425815582,
				-1.0386760234832764
			],
			"type":"VEC3"
		},
		{
			"bufferView":1,
			"componentType":5126,
			"count":2448,
			"type":"VEC3"
		},
		{
			"bufferView":2,
			"componentType":5126,
			"count":2448,
			"type":"VEC2"
		},
		{
			"bufferView":3,
			"componentType":5123,
			"count":10752,
			"type":"SCALAR"
		},
		{
			"bufferView":4,
			"componentType":5126,
			"count":2946,
			"max":[
				1.2125970125198364,
				0.5956419706344604,
				-0.02048099972307682
			],
			"min":[
				-0.9571179747581482,
				-0.6073859930038452,
				-1.0255160331726074
			],
			"type":"VEC3"
		},
		{
			"bufferView":5,
			"componentType":5126,
			"count":2946,
			"type":"VEC3"
		},
		{
			"bufferView":6,
			"componentType":5126,
			"count":2946,
			"type":"VEC2"
		},
		{
			"bufferView":7,
			"componentType":5123,
			"count":9312,
			"type":"SCALAR"
		},
		{
			"bufferView":8,
			"componentType":5126,
			"count":166,
			"max":[
				0.953548014163971,
				-0.4133949875831604,
				-1.3261029720306396
			],
			"min":[
				-0.7373909950256348,
				-0.446709007024765,
				-1.361132025718689
			],
			"type":"VEC3"
		},
		{
			"bufferView":9,
			"componentType":5126,
			"count":166,
			"type":"VEC3"
		},
		{
			"bufferView":10,
			"componentType":5126,
			"count":166,
			"type":"VEC2"
		},
		{
			"bufferView":11,
			"componentType":5123,
			"count":720,
			"type":"SCALAR"
		},
		{
			"bufferView":12,
			"componentType":5126,
			"count":108,
			"max":[
				-0.29009100794792175,
				0.1698320060968399,
				-0.9816960096359253
			],
			"min":[
				-0.6060119867324829,
				-0.19468499720096588,
				-1.0171550512313843
			],
			"type":"VEC3"
		},
		{
			"bufferView":13,
			"componentType":5126,
			"count":108,
			"type":"VEC3"
		},
		{
			"bufferView":14,
			"componentType":5126,
			"count":108,
			"type":"VEC2"
		},
		{
			"bufferView":15,
			"componentType":5123,
			"count":378,
			"type":"SCALAR"
		},
		{
			"bufferView":16,
			"componentType":5126,
			"count":24,
			"max":[
				-0.26877498626708984,
				-0.10951600223779678,
				-0.980230987071991
			],
			"min":[
				-0.2887740135192871,
				-0.12951500713825226,
				-1.0002299547195435
			],
			"type":"VEC3"
		},
		{
			"bufferView":17,
			"componentType":5126,
			"count":24,
			"type":"VEC3"
		},
		{
			"bufferView":18,
			"componentType":5126,
			"count":24,
			"type":"VEC2"
		},
		{
			"bufferView":19,
			"componentType":5123,
			"count":36,
			"type":"SCALAR"
		}
	],
	"bufferViews":[
		{
			"buffer":0,
			"byteLength":29376,
			"byteOffset":0,
			"target":34962
		},
		{
			"buffer":0,
			"byteLength":29376,
			"byteOffset":29376,
			"target":34962
		},
		{
			"buffer":0,
			"byteLength":19584,
			"byteOffset":58752,
			"target":34962
		},
		{
			"buffer":0,
			"byteLength":21504,
			"byteOffset":78336,
			"target":34963
		},
		{
			"buffer":0,
			"byteLength":35352,
			"byteOffset":99840,
			"target":34962
		},
		{
			"buffer":0,
			"byteLength":35352,
			"byteOffset":135192,
			"target":34962
		},
		{
			"buffer":0,
			"byteLength":23568,
			"byteOffset":170544,
			"target":34962
		},
		{
			"buffer":0,
			"byteLength":18624,
			"byteOffset":194112,
			"target":34963
		},
		{
			"buffer":0,
			"byteLength":1992,
			"byteOffset":212736,
			"target":34962
		},
		{
			"buffer":0,
			"byteLength":1992,
			"byteOffset":214728,
			"target":34962
		},
		{
			"buffer":0,
			"byteLength":1328,
			"byteOffset":216720,
			"target":34962
		},
		{
			"buffer":0,
			"byteLength":1440,
			"byteOffset":218048,
			"target":34963
		},
		{
			"buffer":0,
			"byteLength":1296,
			"byteOffset":219488,
			"target":34962
		},
		{
			"buffer":0,
			"byteLength":1296,
			"byteOffset":220784,
			"target":34962
		},
		{
			"buffer":0,
			"byteLength":864,
			"byteOffset":222080,
			"target":34962
		},
		{
			"buffer":0,
			"byteLength":756,
			"byteOffset":222944,
			"target":34963
		},
		{
			"buffer":0,
			"byteLength":288,
			"byteOffset":223700,
			"target":34962
		},
		{
			"buffer":0,
			"byteLength":288,
			"byteOffset":223988,
			"target":34962
		},
		{
			"buffer":0,
			"byteLength":192,
			"byteOffset":224276,
			"target":34962
		},
		{
			"buffer":0,
			"byteLength":72,
			"byteOffset":224468,
			"target":34963
		}
	],
	"samplers":[
		{
			"magFilter":9729,
			"minFilter":9987
		}
	],
	"buffers":[
		{
			"byteLength":224540,
			"uri":"pool_table.bin"
		}
	]
}
