{
	"asset":{
		"generator":"Khronos glTF Blender I/O v5.1.18",
		"version":"2.0"
	},
	"extensionsUsed":[
		"KHR_materials_specular"
	],
	"scene":0,
	"scenes":[
		{
			"name":"Scene",
			"nodes":[
				0
			]
		}
	],
	"nodes":[
		{
			"mesh":0,
			"name":"Pool_Table",
			"rotation":[
				0.7071068286895752,
				0,
				0,
				0.7071068286895752
			]
		}
	],
	"materials":[
		{
			"doubleSided":true,
			"extensions":{
				"KHR_materials_specular":{
					"specularColorFactor":[
						2.0,
						2.0,
						2.0
					]
				}
			},
			"name":"Material",
			"normalTexture":{
				"index":0
			},
			"pbrMetallicRoughness":{
				"baseColorTexture":{
					"index":1
				},
				"metallicRoughnessTexture":{
					"index":2
				}
			}
		}
	],
	"meshes":[
		{
			"name":"POOL TABLE.001",
			"primitives":[
				{
					"attributes":{
						"POSITION":0,
						"NORMAL":1,
						"TEXCOORD_0":2
					},
					"indices":3,
					"material":0
				}
			]
		}
	],
	"textures":[
		{
			"sampler":0,
			"source":0
		},
		{
			"sampler":0,
			"source":1
		},
		{
			"sampler":0,
			"source":2
		}
	],
	"images":[
		{
			"mimeType":"image/png",
			"name":"pool table low_POOL TABLE_Normal",
			"uri":"pool%20table%20low_POOL%20TABLE_Normal.png"
		},
		{
			"mimeType":"image/png",
			"name":"pool table low_POOL TABLE_BaseColor",
			"uri":"pool%20table%20low_POOL%20TABLE_BaseColor.png"
		},
		{
			"mimeType":"image/png",
			"name":"pool table low_POOL TABLE_Metallic-pool table low_POOL TABLE_Roughness",
			"uri":"pool%20table%20low_POOL%20TABLE_Metallic-pool%20table%20low_POOL%20TABLE_Roughness.png"
		}
	],
	"accessors":[
		{
			"bufferView":0,
			"componentType":5126,
			"count":2946,
			"max":[
				1.0830433368682861,
				0.60560542345047,
				4.4498592615127563e-05
			],
			"min":[
				-1.0866717100143433,
				-0.5974225401878357,
				-1.004990577697754
			],
			"type":"VEC3"
		},
		{
			"bufferView":1,
			"componentType":5126,
			"count":2946,
			"type":"VEC3"
		},
		{
			"bufferView":2,
			"componentType":5126,
			"count":2946,
			"type":"VEC2"
		},
		{
			"bufferView":3,
			"componentType":5123,
			"count":9312,
			"type":"SCALAR"
		}
	],
	"bufferViews":[
		{
			"buffer":0,
			"byteLength":35352,
			"byteOffset":0,
			"target":34962
		},
		{
			"buffer":0,
			"byteLength":35352,
			"byteOffset":35352,
			"target":34962
		},
		{
			"buffer":0,
			"byteLength":23568,
			"byteOffset":70704,
			"target":34962
		},
		{
			"buffer":0,
			"byteLength":18624,
			"byteOffset":94272,
			"target":34963
		}
	],
	"samplers":[
		{
			"magFilter":9729,
			"minFilter":9987
		}
	],
	"buffers":[
		{
			"byteLength":112896,
			"uri":"table.bin"
		}
	]
}
