{
	"asset":{
		"generator":"Khronos glTF Blender I/O v5.1.18",
		"version":"2.0"
	},
	"extensionsUsed":[
		"KHR_materials_specular"
	],
	"scene":0,
	"scenes":[
		{
			"name":"Scene",
			"nodes":[
				0
			]
		}
	],
	"nodes":[
		{
			"mesh":0,
			"name":"Triangle",
			"rotation":[
				0.7071068286895752,
				0,
				0,
				0.7071068286895752
			]
		}
	],
	"materials":[
		{
			"doubleSided":true,
			"extensions":{
				"KHR_materials_specular":{
					"specularColorFactor":[
						2.0,
						2.0,
						2.0
					]
				}
			},
			"name":"Material",
			"normalTexture":{
				"index":0
			},
			"pbrMetallicRoughness":{
				"baseColorTexture":{
					"index":1
				},
				"metallicRoughnessTexture":{
					"index":2
				}
			}
		}
	],
	"meshes":[
		{
			"name":"POOL TABLE.003",
			"primitives":[
				{
					"attributes":{
						"POSITION":0,
						"NORMAL":1,
						"TEXCOORD_0":2
					},
					"indices":3,
					"material":0
				}
			]
		}
	],
	"textures":[
		{
			"sampler":0,
			"source":0
		},
		{
			"sampler":0,
			"source":1
		},
		{
			"sampler":0,
			"source":2
		}
	],
	"images":[
		{
			"mimeType":"image/png",
			"name":"pool table low_POOL TABLE_Normal",
			"uri":"pool%20table%20low_POOL%20TABLE_Normal.png"
		},
		{
			"mimeType":"image/png",
			"name":"pool table low_POOL TABLE_BaseColor",
			"uri":"pool%20table%20low_POOL%20TABLE_BaseColor.png"
		},
		{
			"mimeType":"image/png",
			"name":"pool table low_POOL TABLE_Metallic-pool table low_POOL TABLE_Roughness",
			"uri":"pool%20table%20low_POOL%20TABLE_Metallic-pool%20table%20low_POOL%20TABLE_Roughness.png"
		}
	],
	"accessors":[
		{
			"bufferView":0,
			"componentType":5126,
			"count":108,
			"max":[
				0.2054232358932495,
				0.18225888907909393,
				-2.384185791015625e-07
			],
			"min":[
				-0.11049774289131165,
				-0.18225811421871185,
				-0.035459280014038086
			],
			"type":"VEC3"
		},
		{
			"bufferView":1,
			"componentType":5126,
			"count":108,
			"type":"VEC3"
		},
		{
			"bufferView":2,
			"componentType":5126,
			"count":108,
			"type":"VEC2"
		},
		{
			"bufferView":3,
			"componentType":5123,
			"count":378,
			"type":"SCALAR"
		}
	],
	"bufferViews":[
		{
			"buffer":0,
			"byteLength":1296,
			"byteOffset":0,
			"target":34962
		},
		{
			"buffer":0,
			"byteLength":1296,
			"byteOffset":1296,
			"target":34962
		},
		{
			"buffer":0,
			"byteLength":864,
			"byteOffset":2592,
			"target":34962
		},
		{
			"buffer":0,
			"byteLength":756,
			"byteOffset":3456,
			"target":34963
		}
	],
	"samplers":[
		{
			"magFilter":9729,
			"minFilter":9987
		}
	],
	"buffers":[
		{
			"byteLength":4212,
			"uri":"triangle.bin"
		}
	]
}
