{
	"asset":{
		"generator":"Khronos glTF Blender I/O v5.0.21",
		"version":"2.0"
	},
	"scene":0,
	"scenes":[
		{
			"name":"Scene",
			"nodes":[
				0
			]
		}
	],
	"nodes":[
		{
			"mesh":0,
			"name":"Dumpster_2",
			"translation":[
				-0.37014564871788025,
				1.1551308631896973,
				-0.45879942178726196
			]
		}
	],
	"meshes":[
		{
			"name":"Mesh",
			"primitives":[
				{
					"attributes":{
						"POSITION":0,
						"NORMAL":1,
						"TEXCOORD_0":2
					},
					"indices":3
				}
			]
		}
	],
	"accessors":[
		{
			"bufferView":0,
			"componentType":5126,
			"count":5792,
			"max":[
				1.1835980415344238,
				0.013889074325561523,
				0.9164097309112549
			],
			"min":[
				-0.44330665469169617,
				-1.1551308631896973,
				-0.013308882713317871
			],
			"type":"VEC3"
		},
		{
			"bufferView":1,
			"componentType":5126,
			"count":5792,
			"type":"VEC3"
		},
		{
			"bufferView":2,
			"componentType":5126,
			"count":5792,
			"type":"VEC2"
		},
		{
			"bufferView":3,
			"componentType":5123,
			"count":14658,
			"type":"SCALAR"
		}
	],
	"bufferViews":[
		{
			"buffer":0,
			"byteLength":69504,
			"byteOffset":0,
			"target":34962
		},
		{
			"buffer":0,
			"byteLength":69504,
			"byteOffset":69504,
			"target":34962
		},
		{
			"buffer":0,
			"byteLength":46336,
			"byteOffset":139008,
			"target":34962
		},
		{
			"buffer":0,
			"byteLength":29316,
			"byteOffset":185344,
			"target":34963
		}
	],
	"buffers":[
		{
			"byteLength":214660,
			"uri":"Dumpster.bin"
		}
	]
}
