{
	"asset":{
		"generator":"Khronos glTF Blender I/O v5.1.18",
		"version":"2.0"
	},
	"extensionsUsed":[
		"KHR_materials_specular"
	],
	"scene":0,
	"scenes":[
		{
			"name":"Scene",
			"nodes":[
				0,
				1,
				2
			]
		}
	],
	"nodes":[
		{
			"mesh":0,
			"name":"Dumpster_2",
			"translation":[
				-0.37014564871788025,
				1.1551308631896973,
				-0.45879942178726196
			]
		},
		{
			"mesh":1,
			"name":"Dumpster_2_Lid_Right",
			"translation":[
				0.37008047103881836,
				1.1551059484481812,
				-0.4588342607021332
			]
		},
		{
			"mesh":2,
			"name":"Dumpster_2_Lid_Left",
			"translation":[
				-0.37014567852020264,
				1.1551557779312134,
				-0.4588172733783722
			]
		}
	],
	"materials":[
		{
			"doubleSided":true,
			"extensions":{
				"KHR_materials_specular":{
					"specularFactor":0,
					"specularColorFactor":[
						0.8999999761581421,
						0.8999999761581421,
						0.8999999761581421
					]
				}
			},
			"name":"4Y_dumpster_tex",
			"normalTexture":{
				"index":0
			},
			"pbrMetallicRoughness":{
				"baseColorTexture":{
					"index":1
				},
				"metallicRoughnessTexture":{
					"index":2
				}
			}
		}
	],
	"meshes":[
		{
			"name":"Mesh",
			"primitives":[
				{
					"attributes":{
						"POSITION":0,
						"NORMAL":1,
						"TEXCOORD_0":2
					},
					"indices":3,
					"material":0
				}
			]
		},
		{
			"name":"Mesh.004",
			"primitives":[
				{
					"attributes":{
						"POSITION":4,
						"NORMAL":5,
						"TEXCOORD_0":6
					},
					"indices":7,
					"material":0
				}
			]
		},
		{
			"name":"Mesh.005",
			"primitives":[
				{
					"attributes":{
						"POSITION":8,
						"NORMAL":9,
						"TEXCOORD_0":10
					},
					"indices":11,
					"material":0
				}
			]
		}
	],
	"textures":[
		{
			"sampler":0,
			"source":0
		},
		{
			"sampler":0,
			"source":1
		},
		{
			"sampler":0,
			"source":2
		}
	],
	"images":[
		{
			"mimeType":"image/png",
			"name":"4Y_dumpster_tex_Normal_OpenGL",
			"uri":"4Y_dumpster_tex_Normal_OpenGL.png"
		},
		{
			"mimeType":"image/png",
			"name":"4Y_dumpster_tex_Base_Color",
			"uri":"4Y_dumpster_tex_Base_Color.png"
		},
		{
			"mimeType":"image/png",
			"name":"4Y_dumpster_tex_Metallic-4Y_dumpster_tex_Roughness",
			"uri":"4Y_dumpster_tex_Metallic-4Y_dumpster_tex_Roughness.png"
		}
	],
	"accessors":[
		{
			"bufferView":0,
			"componentType":5126,
			"count":5329,
			"max":[
				1.1835980415344238,
				0.013889074325561523,
				0.9164097309112549
			],
			"min":[
				-0.44330665469169617,
				-1.1551308631896973,
				-0.013308882713317871
			],
			"type":"VEC3"
		},
		{
			"bufferView":1,
			"componentType":5126,
			"count":5329,
			"type":"VEC3"
		},
		{
			"bufferView":2,
			"componentType":5126,
			"count":5329,
			"type":"VEC2"
		},
		{
			"bufferView":3,
			"componentType":5123,
			"count":14658,
			"type":"SCALAR"
		},
		{
			"bufferView":4,
			"componentType":5126,
			"count":418,
			"max":[
				0.3682529330253601,
				0.01980268955230713,
				0.9042198657989502
			],
			"min":[
				-0.36685237288475037,
				-0.1749858260154724,
				-0.010270953178405762
			],
			"type":"VEC3"
		},
		{
			"bufferView":5,
			"componentType":5126,
			"count":418,
			"type":"VEC3"
		},
		{
			"bufferView":6,
			"componentType":5126,
			"count":418,
			"type":"VEC2"
		},
		{
			"bufferView":7,
			"componentType":5123,
			"count":1116,
			"type":"SCALAR"
		},
		{
			"bufferView":8,
			"componentType":5126,
			"count":418,
			"max":[
				0.3669184148311615,
				0.01980268955230713,
				0.9042200446128845
			],
			"min":[
				-0.36818715929985046,
				-0.1749858260154724,
				-0.010271012783050537
			],
			"type":"VEC3"
		},
		{
			"bufferView":9,
			"componentType":5126,
			"count":418,
			"type":"VEC3"
		},
		{
			"bufferView":10,
			"componentType":5126,
			"count":418,
			"type":"VEC2"
		},
		{
			"bufferView":11,
			"componentType":5123,
			"count":1116,
			"type":"SCALAR"
		}
	],
	"bufferViews":[
		{
			"buffer":0,
			"byteLength":63948,
			"byteOffset":0,
			"target":34962
		},
		{
			"buffer":0,
			"byteLength":63948,
			"byteOffset":63948,
			"target":34962
		},
		{
			"buffer":0,
			"byteLength":42632,
			"byteOffset":127896,
			"target":34962
		},
		{
			"buffer":0,
			"byteLength":29316,
			"byteOffset":170528,
			"target":34963
		},
		{
			"buffer":0,
			"byteLength":5016,
			"byteOffset":199844,
			"target":34962
		},
		{
			"buffer":0,
			"byteLength":5016,
			"byteOffset":204860,
			"target":34962
		},
		{
			"buffer":0,
			"byteLength":3344,
			"byteOffset":209876,
			"target":34962
		},
		{
			"buffer":0,
			"byteLength":2232,
			"byteOffset":213220,
			"target":34963
		},
		{
			"buffer":0,
			"byteLength":5016,
			"byteOffset":215452,
			"target":34962
		},
		{
			"buffer":0,
			"byteLength":5016,
			"byteOffset":220468,
			"target":34962
		},
		{
			"buffer":0,
			"byteLength":3344,
			"byteOffset":225484,
			"target":34962
		},
		{
			"buffer":0,
			"byteLength":2232,
			"byteOffset":228828,
			"target":34963
		}
	],
	"samplers":[
		{
			"magFilter":9729,
			"minFilter":9987
		}
	],
	"buffers":[
		{
			"byteLength":231060,
			"uri":"dumpster_2.bin"
		}
	]
}
