{
	"asset":{
		"generator":"Khronos glTF Blender I/O v5.1.18",
		"version":"2.0"
	},
	"scene":0,
	"scenes":[
		{
			"name":"Scene",
			"nodes":[
				0
			]
		}
	],
	"nodes":[
		{
			"mesh":0,
			"name":"VendingMachine"
		}
	],
	"materials":[
		{
			"doubleSided":true,
			"emissiveFactor":[
				1,
				1,
				1
			],
			"emissiveTexture":{
				"index":0
			},
			"name":"VendingMachine",
			"normalTexture":{
				"index":1
			},
			"occlusionTexture":{
				"index":2
			},
			"pbrMetallicRoughness":{
				"baseColorTexture":{
					"index":3
				},
				"metallicRoughnessTexture":{
					"index":2
				}
			}
		}
	],
	"meshes":[
		{
			"name":"VendingMachine",
			"primitives":[
				{
					"attributes":{
						"POSITION":0,
						"NORMAL":1,
						"TEXCOORD_0":2,
						"TEXCOORD_1":3
					},
					"indices":4,
					"material":0
				}
			]
		}
	],
	"textures":[
		{
			"sampler":0,
			"source":0
		},
		{
			"sampler":0,
			"source":1
		},
		{
			"sampler":0,
			"source":2
		},
		{
			"sampler":0,
			"source":3
		}
	],
	"images":[
		{
			"mimeType":"image/jpeg",
			"name":"mi_VendingMachines_01_01_emissive",
			"uri":"mi_VendingMachines_01_01_emissive.jpg"
		},
		{
			"mimeType":"image/jpeg",
			"name":"mi_VendingMachines_01_01_normal",
			"uri":"mi_VendingMachines_01_01_normal.jpg"
		},
		{
			"mimeType":"image/png",
			"name":"mi_VendingMachines_01_01_metallicRoughness",
			"uri":"mi_VendingMachines_01_01_metallicRoughness.png"
		},
		{
			"mimeType":"image/jpeg",
			"name":"mi_VendingMachines_01_01_baseColor",
			"uri":"mi_VendingMachines_01_01_baseColor.jpg"
		}
	],
	"accessors":[
		{
			"bufferView":0,
			"componentType":5126,
			"count":895,
			"max":[
				0.5649501085281372,
				2.000000238418579,
				0.4086032509803772
			],
			"min":[
				-0.5649501085281372,
				-2.384185791015625e-07,
				-0.40860316157341003
			],
			"type":"VEC3"
		},
		{
			"bufferView":1,
			"componentType":5126,
			"count":895,
			"type":"VEC3"
		},
		{
			"bufferView":2,
			"componentType":5126,
			"count":895,
			"type":"VEC2"
		},
		{
			"bufferView":3,
			"componentType":5126,
			"count":895,
			"type":"VEC2"
		},
		{
			"bufferView":4,
			"componentType":5123,
			"count":2142,
			"type":"SCALAR"
		}
	],
	"bufferViews":[
		{
			"buffer":0,
			"byteLength":10740,
			"byteOffset":0,
			"target":34962
		},
		{
			"buffer":0,
			"byteLength":10740,
			"byteOffset":10740,
			"target":34962
		},
		{
			"buffer":0,
			"byteLength":7160,
			"byteOffset":21480,
			"target":34962
		},
		{
			"buffer":0,
			"byteLength":7160,
			"byteOffset":28640,
			"target":34962
		},
		{
			"buffer":0,
			"byteLength":4284,
			"byteOffset":35800,
			"target":34963
		}
	],
	"samplers":[
		{
			"magFilter":9729,
			"minFilter":9987
		}
	],
	"buffers":[
		{
			"byteLength":40084,
			"uri":"vending_machine.bin"
		}
	]
}
