{
	"asset":{
		"generator":"Khronos glTF Blender I/O v5.1.18",
		"version":"2.0"
	},
	"scene":0,
	"scenes":[
		{
			"name":"Scene",
			"nodes":[
				0
			]
		}
	],
	"nodes":[
		{
			"mesh":0,
			"name":"Traffic_Cone_1",
			"rotation":[
				-0.70710688829422,
				0,
				0,
				0.7071066498756409
			]
		}
	],
	"materials":[
		{
			"doubleSided":true,
			"name":"None.001",
			"normalTexture":{
				"index":0
			},
			"pbrMetallicRoughness":{
				"baseColorTexture":{
					"index":1
				},
				"metallicRoughnessTexture":{
					"index":2
				},
				"roughnessFactor":0.7029344439506531
			}
		}
	],
	"meshes":[
		{
			"name":"Object_0",
			"primitives":[
				{
					"attributes":{
						"POSITION":0,
						"NORMAL":1,
						"TEXCOORD_0":2
					},
					"indices":3,
					"material":0
				}
			]
		}
	],
	"textures":[
		{
			"sampler":0,
			"source":0
		},
		{
			"sampler":0,
			"source":1
		},
		{
			"sampler":0,
			"source":2
		}
	],
	"images":[
		{
			"mimeType":"image/jpeg",
			"name":"Image",
			"uri":"Image.jpg"
		},
		{
			"mimeType":"image/jpeg",
			"name":"Image",
			"uri":"Image-1.jpg"
		},
		{
			"mimeType":"image/png",
			"name":"Image",
			"uri":"Image.png"
		}
	],
	"accessors":[
		{
			"bufferView":0,
			"componentType":5126,
			"count":220,
			"max":[
				0.17689061164855957,
				0.17676198482513428,
				0.45814889669418335
			],
			"min":[
				-0.17689204216003418,
				-0.17676186561584473,
				-7.450580596923828e-08
			],
			"type":"VEC3"
		},
		{
			"bufferView":1,
			"componentType":5126,
			"count":220,
			"type":"VEC3"
		},
		{
			"bufferView":2,
			"componentType":5126,
			"count":220,
			"type":"VEC2"
		},
		{
			"bufferView":3,
			"componentType":5123,
			"count":846,
			"type":"SCALAR"
		}
	],
	"bufferViews":[
		{
			"buffer":0,
			"byteLength":2640,
			"byteOffset":0,
			"target":34962
		},
		{
			"buffer":0,
			"byteLength":2640,
			"byteOffset":2640,
			"target":34962
		},
		{
			"buffer":0,
			"byteLength":1760,
			"byteOffset":5280,
			"target":34962
		},
		{
			"buffer":0,
			"byteLength":1692,
			"byteOffset":7040,
			"target":34963
		}
	],
	"samplers":[
		{
			"magFilter":9729,
			"minFilter":9987
		}
	],
	"buffers":[
		{
			"byteLength":8732,
			"uri":"Traffic_Cone_1.bin"
		}
	]
}
