<?xml version="1.0" encoding="UTF-8" standalone="no"?>
<!-- Created with Inkscape (http://www.inkscape.org/) -->

<svg
   width="1920"
   height="1080"
   viewBox="0 0 1920 1080"
   version="1.1"
   id="svg1"
   xml:space="preserve"
   inkscape:version="1.4.3 (0d15f75042, 2025-12-25)"
   sodipodi:docname="logo.svg"
   xmlns:inkscape="http://www.inkscape.org/namespaces/inkscape"
   xmlns:sodipodi="http://sodipodi.sourceforge.net/DTD/sodipodi-0.dtd"
   xmlns="http://www.w3.org/2000/svg"
   xmlns:svg="http://www.w3.org/2000/svg"><sodipodi:namedview
     id="namedview1"
     pagecolor="#ffffff"
     bordercolor="#000000"
     borderopacity="0.25"
     inkscape:showpageshadow="2"
     inkscape:pageopacity="0.0"
     inkscape:pagecheckerboard="0"
     inkscape:deskcolor="#d1d1d1"
     inkscape:document-units="px"
     inkscape:zoom="0.50286698"
     inkscape:cx="822.28506"
     inkscape:cy="307.23831"
     inkscape:window-width="1920"
     inkscape:window-height="1128"
     inkscape:window-x="0"
     inkscape:window-y="0"
     inkscape:window-maximized="1"
     inkscape:current-layer="layer2"
     showguides="true"
     showgrid="false"><inkscape:grid
       type="axonomgrid"
       id="grid19"
       units="px"
       originx="0"
       originy="0"
       spacingx="3.7795276"
       spacingy="1"
       empcolor="#0099e5"
       empopacity="0.30196078"
       color="#0099e5"
       opacity="0.14901961"
       empspacing="5"
       dotted="false"
       gridanglex="51.5"
       gridanglez="0"
       enabled="true"
       visible="false" /></sodipodi:namedview><defs
     id="defs1"><rect
       x="109.65596"
       y="219.31192"
       width="128.82219"
       height="123.48078"
       id="rect1" /></defs><g
     inkscape:label="Layer 1"
     inkscape:groupmode="layer"
     id="layer1"
     style="display:inline" /><g
     inkscape:groupmode="layer"
     id="layer2"
     inkscape:label="NGIN#9"><path
       id="path19"
       style="display:inline;fill:#000000;stroke-width:0.898937"
       inkscape:label="Logo"
       d="M 1415.9082 414.55469 L 1362.4375 415.0293 L 1361.9492 448.74023 L 1398.7148 448.74023 L 1402.4258 453.45898 L 1402.1465 466.15625 L 1401.8672 478.85547 L 1396.9004 483.79883 L 1323.252 483.79883 L 1318.8379 479.38672 L 1318.8379 466.14453 L 1318.8379 452.90039 L 1322.748 448.74023 L 1352.998 448.74023 L 1352.998 414.58008 L 1301.8398 414.58008 L 1274.6465 437.50391 L 1275.6895 496.36523 L 1300.4102 516.97852 L 1394.4219 517.05859 L 1402.4395 512.7168 L 1402.4395 544.78906 C 1400.8889 546.63351 1399.337 548.47687 1397.7852 550.32031 L 1363.7852 550.32031 L 1363.7852 567.40039 L 1363.7852 584.48047 L 1418.7109 584.48047 L 1445.582 560.85352 L 1445.582 438.40234 L 1415.9082 414.55469 z M 475.63477 414.58008 L 475.6543 425.81641 L 600.79102 584.48047 L 650.0293 584.48047 L 650.0293 570.23633 L 526.44336 414.58008 L 475.63477 414.58008 z M 700.71289 414.58008 L 671.60352 438.21875 L 671.68555 560.6582 L 700.82031 584.41992 L 754.75586 584.0293 L 754.75586 548.9707 L 718.99023 548.07227 L 715.66992 543.57812 L 715.55078 453.91016 L 719.5625 449.63867 L 751.60938 449.63867 L 751.60938 414.58008 L 700.71289 414.58008 z M 764.19531 414.58008 L 764.19531 449.63867 L 799.16211 449.63867 L 803.74805 455.65234 L 803.74805 466.65234 L 845.09961 466.71875 L 845.09961 438.09961 L 815.41797 414.58008 L 764.19531 414.58008 z M 870.26953 414.58008 L 870.26953 584.16211 L 918.8125 584.61133 L 918.8125 414.58008 L 870.26953 414.58008 z M 946.67969 414.58008 L 946.68945 426.7168 L 1075.3652 584.25586 L 1122.4258 584.0293 C 1122.5985 579.22858 1122.7705 574.42774 1122.9414 569.62695 L 998.36914 414.63867 L 946.67969 414.58008 z M 1076.125 414.58008 L 1076.125 495.7207 L 1113.1094 541.55469 L 1122.4023 553.01758 L 1122.6562 553.01758 L 1122.9121 553.01758 L 1122.7852 414.58008 L 1076.125 414.58008 z M 605.08203 414.58203 L 605.08203 497.75 L 649.58008 553.01172 L 649.80469 553.01562 L 650.0293 553.01953 L 650.0293 414.58203 L 605.08203 414.58203 z M 1177.8242 426.26758 L 1173.0664 450.53906 L 1151.127 450.53906 L 1146.2852 473.91016 L 1157.5 473.91016 L 1168.7148 473.91016 L 1168.6602 475.03516 L 1168.6055 476.1582 L 1163.7324 501.32812 L 1142.666 501.83594 L 1138.5215 524.02539 L 1138.9121 524.41211 L 1158.8086 524.70117 L 1154.332 549.66797 L 1154.332 549.99609 L 1154.332 550.32031 L 1176.5547 550.32031 L 1181.4707 524.3457 L 1193.0703 524.3125 L 1204.6719 524.2793 L 1200.1855 549.87109 L 1200.1855 550.0957 L 1200.1855 550.32031 L 1211.2949 550.32031 L 1222.4082 550.32031 L 1227.7246 524.92969 L 1248.2773 524.08594 L 1253.2227 501.77734 L 1231.627 501.77734 L 1236.6113 474.35938 L 1258.0469 473.46094 L 1262.2109 450.53906 L 1241.5371 450.53906 L 1245.7402 426.7168 L 1223.5371 426.88477 L 1219.0723 450.08789 L 1219.0605 450.3125 L 1219.0488 450.53906 L 1195.6777 450.53906 L 1199.9277 426.26758 L 1177.8242 426.26758 z M 474.73633 441.54883 L 474.73633 584.48047 L 522.38086 584.48047 L 522.38086 502.38477 L 475.08594 441.54883 L 474.73633 441.54883 z M 946.22852 442.44727 L 946.75195 583.07227 L 947.83984 583.76172 L 948.92578 584.45312 L 995.2207 584.48047 L 995.2207 501.95117 L 946.52734 442.44727 L 946.37891 442.44727 L 946.22852 442.44727 z M 1214.5625 473.91016 L 1214.5625 474.18555 L 1214.5625 474.46289 L 1209.1348 501.77734 L 1197.3613 501.77734 L 1185.5879 501.77734 L 1190.7402 473.91211 L 1214.5625 473.91016 z M 764.19531 482.90039 L 764.19531 515.26172 L 802.84961 515.26172 L 802.84961 544.37891 L 798.01953 548.9707 L 764.19531 548.9707 L 764.19531 584.0293 C 781.93134 584.47807 799.66848 584.48047 817.4082 584.48047 L 845.08203 560.6582 L 845.09961 482.90039 L 764.19531 482.90039 z M 1275.6895 534.10742 L 1275.6895 546.96289 L 1275.6895 559.81836 L 1304.0059 584.3418 L 1355.6953 584.48047 L 1355.6953 567.50391 L 1355.5859 550.32031 L 1324.9648 550.32031 L 1319.2891 544.78906 L 1319.2891 534.58789 L 1297.4883 534.34766 L 1275.6895 534.10742 z M 570.32617 635.5957 C 566.44685 635.5957 563.42597 636.65783 561.26172 638.78125 C 559.05663 640.90468 557.99414 644.0479 557.99414 648.25391 L 557.99414 652.78711 C 557.99414 657.03395 559.05663 660.17737 561.26172 662.30078 C 563.42597 664.42421 566.44667 665.44531 570.28516 665.44531 C 573.87863 665.44531 576.73773 664.54833 578.82031 662.66992 C 580.90289 660.83236 581.96484 658.05563 581.96484 654.29883 L 581.96484 649.51953 L 570.20312 649.51953 L 570.20312 654.05273 L 576.5332 654.05273 L 576.5332 655.07422 C 576.5332 656.91178 576.00152 658.25984 575.02148 659.1582 C 574.00061 660.05658 572.44977 660.50391 570.36719 660.50391 C 568.03959 660.50391 566.32501 659.89285 565.18164 658.62695 C 564.03826 657.36108 563.50781 655.35918 563.50781 652.66406 L 563.50781 648.54102 C 563.50781 645.76424 564.03826 643.72079 565.18164 642.41406 C 566.32501 641.10737 568.03941 640.41406 570.32617 640.41406 C 572.24541 640.41406 573.75683 640.90455 574.85938 641.84375 C 575.92108 642.78296 576.49219 644.00669 576.49219 645.51758 L 576.49219 645.68164 L 581.96484 645.68164 L 581.96484 645.35547 C 581.96484 643.35456 581.47417 641.59895 580.49414 640.12891 C 579.5141 638.65884 578.16606 637.51415 576.41016 636.73828 C 574.65426 636.00327 572.61293 635.5957 570.32617 635.5957 z M 474.41797 636.12695 L 474.41797 664.99609 L 495.04102 664.99609 L 495.04102 660.21875 L 479.93164 660.21875 L 479.93164 652.82812 L 492.91602 652.82812 L 492.91602 648.05078 L 479.93164 648.05078 L 479.93164 640.9043 L 495.04102 640.9043 L 495.04102 636.12695 L 474.41797 636.12695 z M 513.96094 636.12695 L 513.96094 664.99609 L 519.47266 664.99609 L 519.47266 645.88672 L 532.78516 664.99609 L 538.25781 664.99609 L 538.25781 636.12695 L 532.78516 636.12695 L 532.78516 655.27734 L 519.47266 636.12695 L 513.96094 636.12695 z M 601.57812 636.12695 L 601.57812 664.99609 L 607.05078 664.99609 L 607.05078 636.12695 L 601.57812 636.12695 z M 627.19531 636.12695 L 627.19531 664.99609 L 632.70898 664.99609 L 632.70898 645.88672 L 646.02148 664.99609 L 651.49219 664.99609 L 651.49219 636.12695 L 646.02148 636.12695 L 646.02148 655.27734 L 632.70898 636.12695 L 627.19531 636.12695 z M 671.39258 636.12695 L 671.39258 664.99609 L 692.01367 664.99609 L 692.01367 660.21875 L 676.90625 660.21875 L 676.90625 652.82812 L 689.89062 652.82812 L 689.89062 648.05078 L 676.90625 648.05078 L 676.90625 640.9043 L 692.01367 640.9043 L 692.01367 636.12695 L 671.39258 636.12695 z M 735.49023 636.12695 L 735.49023 664.99609 L 741.00195 664.99609 L 741.00195 645.88672 L 754.31445 664.99609 L 759.78711 664.99609 L 759.78711 636.12695 L 754.31445 636.12695 L 754.31445 655.27734 L 741.00195 636.12695 L 735.49023 636.12695 z M 779.6875 636.12695 L 779.6875 654.625 C 779.6875 656.78925 780.13519 658.6672 781.11523 660.25977 C 782.09527 661.89316 783.44332 663.11904 785.19922 663.97656 C 786.95513 664.8341 788.99662 665.24219 791.32422 665.24219 C 793.65181 665.24219 795.69349 664.8341 797.49023 663.97656 C 799.24613 663.11904 800.59418 661.89316 801.57422 660.25977 C 802.55426 658.6672 803.04492 656.78925 803.04492 654.625 L 803.04492 636.12695 L 797.57227 636.12695 L 797.57227 654.46094 C 797.57227 656.42101 797.00116 657.93225 795.93945 658.95312 C 794.8369 659.97402 793.2843 660.46484 791.32422 660.46484 C 789.3233 660.46484 787.81366 659.97402 786.75195 658.95312 C 785.69024 657.93227 785.19922 656.42102 785.19922 654.46094 L 785.19922 636.12695 L 779.6875 636.12695 z M 822.94531 636.12695 L 822.94531 664.99609 L 828.45703 664.99609 L 828.45703 646.58008 L 835.64453 659.44336 L 839.32031 659.44336 L 846.38477 646.74414 L 846.38477 664.99609 L 851.85547 664.99609 L 851.85547 636.12695 L 846.38477 636.12695 L 837.48242 652.66406 L 828.45703 636.12695 L 822.94531 636.12695 z M 871.75586 636.12695 L 871.75586 664.99609 L 884.82227 664.99609 C 888.0074 664.99609 890.49977 664.3021 892.21484 662.83203 C 893.92991 661.40281 894.78711 659.3613 894.78711 656.70703 C 894.78711 655.15531 894.37938 653.84846 893.60352 652.70508 C 892.82765 651.60253 891.72397 650.74534 890.25391 650.13281 C 891.56063 649.56112 892.54036 648.78436 893.27539 647.72266 C 893.96958 646.66095 894.33789 645.47664 894.33789 644.16992 C 894.33789 641.59731 893.48067 639.59738 891.76562 638.20898 C 890.05056 636.8206 887.55977 636.12695 884.29297 636.12695 L 871.75586 636.12695 z M 913.66602 636.12695 L 913.66602 664.99609 L 934.28711 664.99609 L 934.28711 660.21875 L 919.17969 660.21875 L 919.17969 652.82812 L 932.16406 652.82812 L 932.16406 648.05078 L 919.17969 648.05078 L 919.17969 640.9043 L 934.28711 640.9043 L 934.28711 636.12695 L 913.66602 636.12695 z M 953.20898 636.12695 L 953.20898 664.99609 L 958.7207 664.99609 L 958.7207 653.64453 L 964.4375 653.64453 L 970.72656 664.99609 L 977.25977 664.99609 L 970.11328 652.99219 C 972.03252 652.4205 973.50238 651.43917 974.48242 650.05078 C 975.46246 648.70323 975.95311 646.98883 975.95312 644.90625 C 975.95312 642.08863 975.01354 639.92495 973.2168 638.41406 C 971.42006 636.90317 968.92945 636.12695 965.78516 636.12695 L 953.20898 636.12695 z M 1020.4902 636.12695 L 1020.4902 664.99609 L 1026.0039 664.99609 L 1026.0039 645.88672 L 1039.3145 664.99609 L 1044.7871 664.99609 L 1044.7871 636.12695 L 1039.3145 636.12695 L 1039.3145 655.27734 L 1026.0039 636.12695 L 1020.4902 636.12695 z M 1064.9727 636.12695 L 1064.9727 664.99609 L 1070.4453 664.99609 L 1070.4453 636.12695 L 1064.9727 636.12695 z M 1090.5898 636.12695 L 1090.5898 664.99609 L 1096.1035 664.99609 L 1096.1035 645.88672 L 1109.416 664.99609 L 1114.8867 664.99609 L 1114.8867 636.12695 L 1109.416 636.12695 L 1109.416 655.27734 L 1096.1035 636.12695 L 1090.5898 636.12695 z M 1134.7871 636.12695 L 1134.7871 664.99609 L 1155.4082 664.99609 L 1155.4082 660.21875 L 1140.3008 660.21875 L 1140.3008 652.82812 L 1153.2852 652.82812 L 1153.2852 648.05078 L 1140.3008 648.05078 L 1140.3008 640.9043 L 1155.4082 640.9043 L 1155.4082 636.12695 L 1134.7871 636.12695 z M 877.26953 640.9043 L 884.53711 640.9043 C 887.39556 640.9043 888.86523 642.12962 888.86523 644.49805 C 888.86523 646.7848 887.35577 647.92773 884.33398 647.92773 L 877.26953 647.92773 L 877.26953 640.9043 z M 958.7207 640.9043 L 965.94922 640.9043 C 967.37844 640.9043 968.48019 641.27243 969.29688 641.92578 C 970.11357 642.57914 970.52148 643.59954 970.52148 644.90625 C 970.52148 647.64219 969.01184 648.99023 965.94922 648.99023 L 958.7207 648.99023 L 958.7207 640.9043 z M 1445.0156 648.4707 L 1174.5723 648.84375 L 1174.5723 652.26953 L 1445.0156 651.82617 L 1445.0156 648.4707 z M 877.26953 652.70508 L 884.70117 652.70508 C 887.76379 652.70508 889.31445 653.93058 889.31445 656.33984 C 889.31445 658.95328 887.84442 660.21875 884.9043 660.21875 L 877.26953 660.21875 L 877.26953 652.70508 z " /></g></svg>
